# File created by Blade
# Date/Time:  Fri Jan 16 15:45:48 2015
# Frame Rate: 120.000 fps
#------------------------------------------------------
:FULLY-SPECIFIED
:DEGREES
4270
root -6.051724 35.285894 -9.937837 -2.748985 -6.828130 -5.395928
Spine 3.631476 0.069457 11.072012
Head -4.415777 9.091536 -12.789711
LeftShoulder -25.059597 14.949126 1.723278
LeftArm 20.724630 -57.893187 -27.640002
LeftForeArm 26.857169 -0.000000 4.643363
LeftHand -7.660592 -0.000000 -5.775402
LeftHandThumb1 -26.253704 0.000000 33.147579
RightShoulder -6.633121 11.081283 -23.906418
RightArm 1.238579 19.401148 18.307263
RightForeArm -28.489711 0.000000 17.228529
RightHand -6.887226 -0.000000 6.802387
RightHandThumb1 -24.326973 -0.000000 -32.862282
LeftUpLeg 12.770627 15.319763 8.538063
LeftLeg -7.738755 -0.000000 0.000000
LeftFoot -16.075396 26.295810 -11.791126
LeftToeBase 21.876456 -0.000000 -0.000000
RightUpLeg 9.462111 -3.645719 2.699821
RightLeg -4.097778 -0.000000 0.000000
RightFoot -4.761251 -25.304543 5.375596
RightToeBase 11.926398 -0.000000 -0.000000
4271
root -6.065675 35.285648 -9.943054 -2.679762 -6.910219 -5.419789
Spine 3.527521 0.177200 11.060974
Head -4.143517 8.940012 -12.619541
LeftShoulder -25.043294 14.948429 1.730306
LeftArm 20.752552 -57.960304 -27.555635
LeftForeArm 26.768716 -0.000000 4.709268
LeftHand -7.561991 -0.000000 -5.440169
LeftHandThumb1 -26.253704 0.000000 33.147579
RightShoulder -6.593065 11.157595 -23.934055
RightArm 1.284187 19.466514 18.317160
RightForeArm -28.325441 -0.000000 17.286830
RightHand -6.895324 -0.000000 6.676009
RightHandThumb1 -24.326973 -0.000000 -32.862282
LeftUpLeg 12.703523 15.408706 8.573161
LeftLeg -7.711103 -0.000000 0.000000
LeftFoot -16.092464 26.314054 -11.779570
LeftToeBase 21.875863 -0.000000 -0.000000
RightUpLeg 9.404862 -3.700080 2.735614
RightLeg -4.142789 -0.000000 0.000000
RightFoot -4.714025 -25.174341 5.337804
RightToeBase 11.932571 -0.000000 -0.000000
4272
root -6.080038 35.285217 -9.949088 -2.586866 -6.953486 -5.434998
Spine 3.382400 0.271301 11.025886
Head -3.869670 8.746478 -12.451229
LeftShoulder -25.026488 14.914929 1.767618
LeftArm 20.816196 -57.978190 -27.510097
LeftForeArm 26.535265 -0.000000 4.826125
LeftHand -7.590287 0.000000 -5.197890
LeftHandThumb1 -26.253704 0.000000 33.147579
RightShoulder -6.588883 11.237591 -23.937504
RightArm 1.371475 19.532035 18.328853
RightForeArm -28.135365 -0.000000 17.317434
RightHand -7.017116 -0.000000 6.677856
RightHandThumb1 -24.326973 -0.000000 -32.862282
LeftUpLeg 12.608013 15.453253 8.585924
LeftLeg -7.693981 -0.000000 0.000000
LeftFoot -16.100123 26.311328 -11.848184
LeftToeBase 21.747029 -0.000000 -0.000000
RightUpLeg 9.341236 -3.783754 2.765459
RightLeg -4.221282 -0.000000 0.000000
RightFoot -4.645326 -25.057332 5.285126
RightToeBase 11.883597 -0.000000 -0.000000
4273
root -6.092899 35.284553 -9.954358 -2.476583 -7.000097 -5.455220
Spine 3.207705 0.364562 11.007799
Head -3.555898 8.530099 -12.283754
LeftShoulder -25.033710 14.906697 1.794506
LeftArm 20.962419 -58.027666 -27.556510
LeftForeArm 26.396239 -0.000000 4.938749
LeftHand -7.593657 -0.000000 -5.042049
LeftHandThumb1 -26.253704 0.000000 33.147579
RightShoulder -6.586606 11.364586 -23.961143
RightArm 1.438006 19.566018 18.359681
RightForeArm -28.014287 -0.000000 17.378969
RightHand -7.042602 0.000000 6.636608
RightHandThumb1 -24.326973 -0.000000 -32.862282
LeftUpLeg 12.513986 15.548875 8.610625
LeftLeg -7.716738 -0.000000 0.000000
LeftFoot -16.078569 26.302830 -11.743991
LeftToeBase 21.916575 -0.000000 -0.000000
RightUpLeg 9.265592 -3.848270 2.800515
RightLeg -4.307279 -0.000000 0.000000
RightFoot -4.593675 -24.957858 5.272612
RightToeBase 11.918754 -0.000000 -0.000000
4274
root -6.107319 35.283358 -9.960937 -2.329519 -7.056055 -5.487110
Spine 2.966573 0.481021 11.001554
Head -3.163792 8.328636 -12.100963
LeftShoulder -25.004613 14.860979 1.861255
LeftArm 21.015805 -58.001249 -27.522995
LeftForeArm 26.261535 0.000000 5.018573
LeftHand -7.461592 0.000000 -4.842782
LeftHandThumb1 -26.253704 0.000000 33.147579
RightShoulder -6.567808 11.455296 -23.953143
RightArm 1.487426 19.600915 18.347253
RightForeArm -27.893382 -0.000000 17.484851
RightHand -7.110857 -0.000000 6.681305
RightHandThumb1 -24.326973 -0.000000 -32.862282
LeftUpLeg 12.396607 15.649496 8.635017
LeftLeg -7.758072 -0.000000 0.000000
LeftFoot -16.043672 26.281100 -11.764472
LeftToeBase 21.799572 -0.000000 -0.000000
RightUpLeg 9.181334 -3.778386 2.861368
RightLeg -4.449210 -0.000000 0.000000
RightFoot -4.515857 -24.921797 5.341402
RightToeBase 11.843040 -0.000000 -0.000000
